<svg width="24" height="24" viewBox="0 0 24 24" fill="none" xmlns="http://www.w3.org/2000/svg">
<path d="M4.93832 21.0824C4.93832 21.7554 5.48395 22.3007 6.15698 22.3007C6.82996 22.3007 7.37564 21.7555 7.37564 21.0824C7.37564 20.4094 6.15698 18.6902 6.15698 18.6902C6.15698 18.6902 4.93832 20.4094 4.93832 21.0824Z" fill="#909090"/>
<path d="M10.8662 21.0824C10.8662 21.7554 11.4122 22.3007 12.0848 22.3007C12.7583 22.3007 13.3035 21.7555 13.3035 21.0824C13.3035 20.4094 12.0848 18.6902 12.0848 18.6902C12.0848 18.6902 10.8662 20.4094 10.8662 21.0824Z" fill="#909090"/>
<path d="M16.7948 21.0824C16.7948 21.7554 17.34 22.3007 18.0135 22.3007C18.6861 22.3007 19.2321 21.7555 19.2321 21.0824C19.2321 20.4094 18.0135 18.6902 18.0135 18.6902C18.0135 18.6902 16.7948 20.4094 16.7948 21.0824Z" fill="#909090"/>
<path d="M22.5691 9.50147C21.8245 8.75606 20.8338 8.25384 19.7331 8.11444C19.6371 6.39112 18.9061 4.83323 17.7615 3.6899C16.5334 2.46089 14.8307 1.69894 12.956 1.69931C11.2004 1.69894 9.59377 2.36784 8.38912 3.46237C7.35248 4.40306 6.61041 5.66264 6.30961 7.08483C6.01842 7.03645 5.72016 7.00912 5.41612 7.00912C3.92236 7.00833 2.56472 7.61597 1.58639 8.59509C0.607266 9.57305 0 10.9311 0 12.4249C0 13.9182 0.607266 15.2767 1.58639 16.2546C2.56472 17.2337 3.92236 17.841 5.41612 17.8405H19.115C20.4619 17.841 21.6872 17.2928 22.5691 16.4101C23.4523 15.5278 24 14.3029 24 12.956C24 11.6087 23.4523 10.3834 22.5691 9.50147ZM21.6678 15.5087C21.0125 16.1632 20.1141 16.566 19.1151 16.5665H5.41612C4.27069 16.566 3.23897 16.104 2.4878 15.3532C1.73695 14.6015 1.27491 13.5707 1.27448 12.4249C1.27491 11.279 1.73695 10.2477 2.4878 9.49612C3.23902 8.74575 4.27069 8.28328 5.41612 8.28328C5.84339 8.28328 6.2542 8.34783 6.64097 8.46736L7.38389 8.69695L7.4633 7.9238C7.60561 6.53386 8.26416 5.29701 9.24534 4.40597C10.2274 3.51497 11.5254 2.97384 12.9559 2.97347C14.4824 2.97384 15.859 3.59062 16.8605 4.59084C17.8607 5.5919 18.4775 6.96862 18.4775 8.49586C18.4775 8.54962 18.4754 8.61253 18.4725 8.6857L18.4485 9.37115L19.1207 9.34547C20.1172 9.34753 21.0136 9.74925 21.6676 10.4028C22.322 11.058 22.7249 11.9565 22.7257 12.956C22.7251 13.955 22.3222 14.8535 21.6678 15.5087Z" fill="#909090"/>
</svg>
